<svg id="Calque_1" data-name="Calque 1" xmlns="http://www.w3.org/2000/svg" xmlns:xlink="http://www.w3.org/1999/xlink" viewBox="0 0 526 529"><defs><style>.cls-1{fill-opacity:0.57;}.cls-1,.cls-10,.cls-11,.cls-12,.cls-13,.cls-18,.cls-2,.cls-3,.cls-4,.cls-5,.cls-6,.cls-7,.cls-8,.cls-9{fill-rule:evenodd;}.cls-2{fill:#7f8082;}.cls-10,.cls-17,.cls-3{stroke:#d6d6d6;stroke-linejoin:round;}.cls-10,.cls-17,.cls-18,.cls-3{stroke-width:0.16px;}.cls-3{fill:url(#Dégradé_sans_nom_3);}.cls-4{fill:url(#Dégradé_sans_nom_2);}.cls-5{fill:#293441;}.cls-6{fill:#2d3948;}.cls-7{fill:url(#Dégradé_sans_nom_4);}.cls-8{fill:url(#Dégradé_sans_nom_4-2);}.cls-9{fill:#2d3b48;}.cls-10{fill:url(#Dégradé_sans_nom_5);}.cls-11{fill:#363f49;opacity:0.45;}.cls-11,.cls-12,.cls-13,.cls-14,.cls-15,.cls-16,.cls-18{isolation:isolate;}.cls-12{opacity:0.3;fill:url(#Dégradé_sans_nom_6);}.cls-13{opacity:0.2;fill:url(#Dégradé_sans_nom_7);}.cls-14{fill:#05f0ff;opacity:0.8;}.cls-15,.cls-18{fill:#fff;}.cls-15,.cls-16{stroke:#06effe;opacity:0.9;}.cls-15{stroke-width:0.92px;}.cls-16{fill:#feffff;stroke-width:0.16px;}.cls-16,.cls-18{stroke-miterlimit:10;}.cls-17{fill:none;}.cls-18{stroke:#fff;opacity:0.34;}</style><linearGradient id="Dégradé_sans_nom_3" x1="3578.97" y1="-2361.95" x2="984.08" y2="-690.14" gradientTransform="matrix(56.93, 0, 0, -33.59, 2082.2, -865.15)" gradientUnits="userSpaceOnUse"><stop offset="0" stop-color="#acacac"/><stop offset="1" stop-color="#e9e9e9"/></linearGradient><radialGradient id="Dégradé_sans_nom_2" cx="224.62" cy="327.76" r="131.59" gradientTransform="matrix(4.92, -356.81, 31.44, 14.67, -5403.22, 153959.82)" gradientUnits="userSpaceOnUse"><stop offset="0" stop-color="#25303b"/><stop offset="1" stop-color="#25303b" stop-opacity="0"/></radialGradient><linearGradient id="Dégradé_sans_nom_4" x1="-692.43" y1="-2753.27" x2="-818.65" y2="-1254.05" gradientTransform="matrix(5.3, 0, 0, -31.07, 5272.75, -805.08)" gradientUnits="userSpaceOnUse"><stop offset="0" stop-color="#24303a"/><stop offset="1" stop-color="#394958"/></linearGradient><linearGradient id="Dégradé_sans_nom_4-2" x1="-1160.77" y1="-2440.62" x2="-1034.56" y2="-941.41" gradientTransform="matrix(5.33, 0, 0, -31.01, 5240.21, -803.12)" xlink:href="#Dégradé_sans_nom_4"/><linearGradient id="Dégradé_sans_nom_5" x1="2730.58" y1="246.23" x2="601.19" y2="32.62" gradientTransform="matrix(56.93, 0, 0, -20.83, 2082.32, -528.53)" gradientUnits="userSpaceOnUse"><stop offset="0" stop-color="#e5e5e5"/><stop offset="1" stop-color="#fff"/></linearGradient><linearGradient id="Dégradé_sans_nom_6" x1="-161.41" y1="-1600.36" x2="-161.41" y2="-2652.46" gradientTransform="matrix(24.07, 0, 0, -20.65, 4096.97, -502.74)" gradientUnits="userSpaceOnUse"><stop offset="0" stop-color="#fff"/><stop offset="0.5" stop-color="#fff" stop-opacity="0.53"/><stop offset="1" stop-color="#fff" stop-opacity="0"/></linearGradient><linearGradient id="Dégradé_sans_nom_7" x1="-161.4" y1="-1525.53" x2="-161.4" y2="-1024.53" gradientTransform="matrix(24.07, 0, 0, -10.32, 4096.97, -223.85)" gradientUnits="userSpaceOnUse"><stop offset="0" stop-color="#fff"/><stop offset="1" stop-color="#fff" stop-opacity="0"/></linearGradient></defs><path class="cls-1" d="M434.6,505.79l-80-113.39H164.4L84.79,505.77Z"/><path class="cls-2" d="M403.75,404.53l-30.24,63.18L352.7,389Zm-278.46,0,20.59,63.18L166.69,389Z"/><path class="cls-3" d="M26.39,198.05l0,0,43.46,275.3h76.06l-6-72.88h37.85l4.82,72.88H337.12l4.82-72.88h37.62l-6,72.88h76.56L493,198.05Z"/><path class="cls-4" d="M130.72,362.9l22.2-83.15-1.56-167.93-41.63,83.89Z"/><path class="cls-5" d="M296.16,92.78h91.59l-1.88,202.45H289.08Zm-69.85,0-89.59.06,2.12,202.39h91.22Z"/><path class="cls-6" d="M149.35,278.45,137.06,360h246l-14.64-81Z"/><path class="cls-7" d="M385.24,362.9l-21.78-82.56.82-169.07,42.14,84.42Z"/><path class="cls-8" d="M130.93,362.9l22-83.16-1.56-167.93-41.62,83.9Z"/><path class="cls-9" d="M217.72,141.37l8.36,178.15h65.1l10.48-178.15Z"/><path class="cls-10" d="M492.13,198.05,385.82,28H133.07L27.26,198.05h87.05l40.11-81h68.7l-5,24.29h83.27L296.79,109h68.76l40.22,81Z"/><path class="cls-11" d="M296.94,109l68.19,0,41.28,84.21L385.29,360H226.62l82-166.77Z"/><path class="cls-12" d="M310.27,198.05,226.64,368.11H133.35L112,198.05Z"/><path class="cls-13" d="M154.42,117.08h68.7l-5,24.29h83l7.79,56.68H114.3Z"/><ellipse class="cls-14" cx="328.1" cy="266.52" rx="11.71" ry="41.51"/><ellipse class="cls-15" cx="328.1" cy="267.13" rx="9.1" ry="36.75"/><ellipse class="cls-16" cx="328.1" cy="267.24" rx="9.1" ry="33.99"/><ellipse class="cls-14" cx="195.65" cy="272.38" rx="11.71" ry="41.51"/><ellipse class="cls-15" cx="195.65" cy="272.99" rx="9.1" ry="36.75"/><ellipse class="cls-16" cx="195.65" cy="273.09" rx="9.1" ry="33.99"/><path class="cls-17" d="M155.08,109H223.3l-5.38,32.39h83.45L296.79,109l68.52,0,41.27,84.21L385.46,360H134.65l-21-167.38Z"/><path class="cls-18" d="M404,198.05H112.43"/></svg>