<svg id="Calque_1" data-name="Calque 1" xmlns="http://www.w3.org/2000/svg" viewBox="0 0 513 513"><defs><style>.cls-1,.cls-3{fill:#00618a;}.cls-2,.cls-4{fill:#e48e00;}.cls-3,.cls-4{fill-rule:evenodd;}</style></defs><path class="cls-1" d="M5,362.88H21.74V297.56L47.21,354.5c3,6.89,7.12,9.33,15.19,9.33s12-2.44,15-9.33l25.47-56.94v65.32h16.74V297.67c0-6.36-2.54-9.44-7.79-11-12.56-3.92-21-.53-24.8,7.95l-25.12,56.2-24.33-56.2c-3.65-8.48-12.24-11.87-24.8-7.95-5.25,1.59-7.79,4.67-7.79,11Z"/><path class="cls-1" d="M133.44,310.07h17.11v36c-.16,2,.62,6.55,9.56,6.69,4.57.07,35.23,0,35.52,0V310.07H212.2c.07,0,0,58.07,0,58.32.09,14.32-17.87,17.43-26.16,17.67H133.8v-10.6c.09,0,52.29,0,52.42,0,10.67-1.13,9.41-6.44,9.41-8.23v-4.35H160.4c-16.38-.15-26.82-7.32-27-15.56C133.44,346.56,133.8,310.43,133.44,310.07Z"/><path class="cls-2" d="M225.25,362.88H272.2a37.85,37.85,0,0,0,15.59-3.21c7.31-3.31,10.88-7.79,10.88-13.67V333.83c0-4.81-4.06-9.3-12-12.29a42.05,42.05,0,0,0-14.45-2.45H251.75c-6.82,0-10.07-2-10.88-6.52a4.77,4.77,0,0,1-.16-1.5v-5.9a4.8,4.8,0,0,1,.16-1.45c.8-3.57,2.57-4.57,8.51-5.13.48,0,1.12-.11,1.6-.11h47.69v-11.6H252.79c-6.68,0-10.19.42-13.37,1.37-9.87,3-14.17,7.87-14.17,16.27v9.55c0,7.34,8.44,13.64,22.61,15.11,1.59.11,3.18.21,4.77.21h17.19a8.64,8.64,0,0,1,1.76.11c5.25.42,7.48,1.36,9.07,3.25a3.86,3.86,0,0,1,1.27,2.94v10.94a5.07,5.07,0,0,1-2.38,3.66c-1.43,1.19-3.81,2-7,2.19-.64,0-1.11.09-1.75.09H225.25Z"/><path class="cls-2" d="M401.71,344.74c0,11.48,8.53,17.92,25.76,19.21,1.61.11,3.22.22,4.83.22h42.83v-11.6H431.79c-9.69,0-13.34-2.56-13.34-8.69v-57H401.71Z"/><path class="cls-2" d="M309,343.05V305.16c0-10,7-16,20.93-18a32.11,32.11,0,0,1,4.47-.32h31.47a34.46,34.46,0,0,1,4.64.32c13.9,1.92,20.93,8,20.93,18v37.89c0,8.49-3,13-9.87,16l16.33,15.42H378.62L365.41,362l-13.3.88H334.37a35.29,35.29,0,0,1-9.74-1.45C314.08,358.42,309,352.63,309,343.05Zm18,.75a7.12,7.12,0,0,0,.32,1.69c1,4.55,5.26,7.08,11.8,7.08h14.31l-14.27-12.88H359l12.45,11.24a8.13,8.13,0,0,0,4.33-5.49,5.78,5.78,0,0,0,.16-1.65V306.61a5,5,0,0,0-.16-1.48c-1-4.22-5.26-6.65-11.64-6.65h-25c-7.33,0-12.12,3.17-12.12,8.13Z"/><path class="cls-1" d="M489.82,269.21c-10.3-.27-18.16.67-24.89,3.48-1.91.79-5,.82-5.27,3.18,1,1.09,1.21,2.72,2,4.05a32.18,32.18,0,0,0,6.73,7.82c2.65,2,5.37,4.08,8.2,5.79,5,3,10.67,4.77,15.52,7.81,2.86,1.8,5.7,4.06,8.49,6.08,1.38,1,2.31,2.56,4.1,3.18v-.28c-.94-1.19-1.18-2.82-2.05-4.06q-1.9-1.87-3.8-3.76a62.39,62.39,0,0,0-13.47-12.73c-4-2.85-13-6.68-14.64-11.29l-.3-.29a64.7,64.7,0,0,0,8.79-2c4.4-1.17,8.34-.86,12.88-2l6.15-1.74v-1.5c-2.27-2.34-3.9-5.43-6.38-7.54a185.43,185.43,0,0,0-20.86-15.65c-4.05-2.55-9.05-4.21-13.33-6.38-1.44-.72-4-1.1-4.93-2.31-2.25-2.88-3.48-6.51-5.21-9.86-3.64-7-7.22-14.65-10.44-22-2.2-5-3.63-10-6.37-14.49C417.63,171,403.46,158,381.52,145.12c-4.67-2.73-10.29-3.81-16.23-5.22l-9.56-.58c-2-.81-4-3.19-5.8-4.35-7.27-4.59-25.91-14.58-31.3-1.44-3.4,8.28,5.08,16.37,8.12,20.57,2.13,3,4.85,6.25,6.37,9.57,1,2.17,1.18,4.36,2,6.66,2.11,5.68,3.94,11.85,6.67,17.1a59.8,59.8,0,0,0,4.63,7.82c1.07,1.46,2.9,2.1,3.19,4.35-1.79,2.51-1.89,6.39-2.9,9.57-4.53,14.28-2.82,32,3.77,42.6,2,3.24,6.78,10.2,13.33,7.53,5.73-2.33,4.45-9.56,6.09-15.94.37-1.44.14-2.51.87-3.47v.71q2.59,5.21,5.2,10.41c3.85,6.2,10.68,12.68,16.46,17.06,3,2.26,5.37,6.19,9.25,7.51v-.29h-1.2c-.76-1.17-1.95-1.66-2.92-2.6a66.76,66.76,0,0,1-6.74-7.53A175.47,175.47,0,0,1,376.51,242c-2.06-3.9-3.84-8.2-5.57-12.16-.67-1.53-.66-3.84-2.05-4.63-1.89,2.9-4.68,5.25-6.15,8.68-2.34,5.49-2.64,12.17-3.51,19.11-.51.18-.28.05-.59.28-4.07-1-5.51-5.12-7-8.68-3.84-9-4.55-23.5-1.17-33.86.87-2.68,4.81-11.13,3.22-13.61-.77-2.47-3.28-3.9-4.69-5.79a44.82,44.82,0,0,1-4.68-8.1c-3.14-7-4.61-14.9-7.91-22-1.58-3.39-4.25-6.82-6.44-9.84-2.43-3.34-5.15-5.8-7-9.84-.67-1.44-1.58-3.73-.58-5.21a2.31,2.31,0,0,1,1.75-1.74c1.7-1.29,6.43.43,8.2,1.16a71,71,0,0,1,12.59,6.37c1.91,1.25,3.84,3.67,6.15,4.34h2.64c4.12.94,8.74.29,12.59,1.45a76.33,76.33,0,0,1,18.44,8.68A113.41,113.41,0,0,1,424.82,200c1.52,2.88,2.17,5.63,3.51,8.68,2.7,6.16,6.1,12.5,8.78,18.53s5.29,12.07,9.08,17.07c2,2.63,9.68,4,13.18,5.5,2.45,1,6.46,2.09,8.78,3.47,4.43,2.65,8.73,5.79,12.89,8.69C483.11,263.43,489.5,266.6,489.82,269.21Z"/><path class="cls-3" d="M360.55,158.5a21.46,21.46,0,0,0-5.21.58v.29h.29c1,2.08,2.8,3.42,4.05,5.21l2.89,6.07a4,4,0,0,1,.29-.29c1.79-1.26,2.61-3.28,2.6-6.36-.72-.76-.82-1.7-1.45-2.61C363.19,160.2,361.59,159.51,360.55,158.5Z"/><path class="cls-4" d="M482.62,352a12.19,12.19,0,1,0,12.19-12.19A12,12,0,0,0,482.62,352Zm21.65,0a9.46,9.46,0,1,1-9.46-9.66A9.43,9.43,0,0,1,504.27,352Zm-6.18,7h2.29l-4.07-6.22c2.19-.23,3.84-1.29,3.84-3.87,0-2.88-1.82-4.07-5.33-4.07h-5.53V359h2.58v-6.44h2.58Zm-6.22-7.72v-3.87h2.61c1.35,0,3,.25,3,1.82,0,1.89-1.47,2.05-3.17,2.05Z"/></svg>