<svg id="Calque_1" data-name="Calque 1" xmlns="http://www.w3.org/2000/svg" viewBox="0 0 513 513"><defs><style>.cls-1{fill:#d10000;}.cls-2{fill:#d10101;}.cls-3{fill:#d10202;}.cls-4{fill:#d20303;}.cls-5{fill:#d20404;}.cls-6{fill:#d20202;}</style></defs><path class="cls-1" d="M299.12,135.18c-3.33-.57-3.77,2.52-5,4.26-20.76,29.39-28.36,62.68-28.44,98-.11,50.89,11.62,99.45,29.62,146.7,2.34,6.15,2.38,6.14-4.38,6.14-57,0-114-.09-171,.15-5.71,0-7-1.84-7.06-7.06-1.27-62.32,13-121.4,37.92-178,14.1-32,29.11-63.67,50.07-92C222.8,83.86,250,61,285,48.29c40.48-14.68,79.93-12.45,118.32,7.38a220.35,220.35,0,0,1,43,29.29c3.27,2.83,3.57,4.7,1,8.23-5.28,7.35-5,7.45-12.38,2.08-17.1-12.45-36.31-16.73-56.84-12.7-30.12,5.93-54.61,21.74-74.43,45-.2,2.11-1.63,3.62-2.58,5.36A5.14,5.14,0,0,1,299.12,135.18Z"/><path class="cls-1" d="M140.14,468.65c6.3-1.41,10.45-3.39,13.31-7.18,7.18-9.48,8.53-20.19,5-31.27-3.25-10.3-11.89-13.92-21.68-15.4-12.33-1.86-24.76-.58-37.13-1.14-4.44-.2-5.77,1-5.71,5.58.27,20.4,0,40.82.17,61.23,0,5.11-2.31,11.8,1.11,14.92s10,.44,15.07,1c4.24.44,5.08-1.45,4.88-5.19-.26-5-.06-10.07-.06-16.19,5.39,5.39,9.72,9.78,14.12,14.09,1.69,1.65,3.5,4.4,5.36,4.49,10,.44,19.95.21,29.93.21.2-.5.39-1,.58-1.51ZM124.5,450.86c-2.36-.63-6.7,1.65-7.82-1.1-1.41-3.43-.58-7.8-.56-11.77a2.14,2.14,0,0,1,1.42-1.56c5-.12,9.95-.12,14.93,0,1.24,0,1.42,1.15,1.44,2.18s0,2,0,3C134,450.86,134,450.86,124.5,450.86Z"/><path class="cls-1" d="M242.84,489.33c-.2-9.4-.07-18.81-.07-28.21,0-8.41,0-16.81,0-25.22,0-12-4.9-18.07-16.66-20.54-8.29-1.75-16.72-1.58-25.1-1.13-15.38.83-21.81,7.73-21.91,23.3-.09,14.81,0,29.61,0,44.42,0,12.24,0,12.24,12.05,12.24,9.29,0,9.44,0,9.4-9.36,0-3.43.52-5.2,4.52-4.85a107.89,107.89,0,0,0,12.59,0c2.39-.07,3.55.43,3.69,3.23.16,3.43-2,8.1,1.22,10,2.72,1.58,7,.48,10.59.54,1.8,0,3.62-.16,5.39,0C242,494.2,242.91,492.65,242.84,489.33Zm-33.17-32.05c-8.91,0-8.91,0-8.91-8.64v-3c0-10.88,0-10.88,11-10.88,9.25,0,9.25,0,9.25,10.23C221,457.28,221,457.28,209.67,457.28Z"/><path class="cls-1" d="M397.93,494.68c-6.4,0-12.79-.09-19.18,0-2.72,0-3.73-.72-3.9-3.69-.84-15.41-.94-15.37,14.34-15.41,7.19,0,14.38-.08,21.56-.31,3.11-.1,6.43-1,6.59-4.74.18-4.24-3.77-4.14-6.54-4.52-3.94-.54-8-.32-11.95-.71-19.08-1.87-28.33-14.69-24.3-33.34,2.12-9.79,8.26-15.36,17.87-16.91,12.7-2,25.51-.65,38.28-.66,1.85,0,3.11.59,2.88,2.77a8,8,0,0,0,0,1.2c.81,17.35.81,17.35-16.48,17.35H402.72c-2.61,0-5-.51-5.11,3.72-.07,4.51,2.5,4.07,5.37,4.08,5.59,0,11.2-.1,16.77.31,8.44.62,14.13,5.07,16.42,13.36a44.43,44.43,0,0,1-.34,24.83c-1.8,6-6.17,9.64-12.26,11.11a24.36,24.36,0,0,1-5.28,1c-6.79.12-13.58,0-20.36,0Z"/><path class="cls-1" d="M309.65,454.28c0-11.59.11-23.17-.08-34.75-.05-3.41,1-4.63,4.39-4.46,5.55.26,12.74-1.91,16.23.81,3.75,2.92,1.08,10.46,1.18,16,.21,12.18.18,24.37,0,36.55-.06,3.57.85,4.95,4.64,4.82,7.58-.28,15.17,0,22.75-.14,3-.06,4.33.76,4.15,4a113.46,113.46,0,0,0,0,13.17c.2,3.33-1.22,4-4.2,3.95-15-.12-29.93-.17-44.9,0-3.67,0-4.25-1.43-4.21-4.6C309.73,477.85,309.65,466.06,309.65,454.28Z"/><path class="cls-1" d="M264.22,453.45c0-11.41.13-22.82-.07-34.22-.07-3.69.55-5.62,4.81-5.18,5.52.58,12.7-2.26,16.21,1.1s1,10.61,1.08,16.14c.15,18.81-.05,37.62.14,56.43.05,4-.77,5.93-5.18,5.42-5.49-.64-12.85,2.37-16-1.25-2.72-3.09-.89-10.26-.94-15.62C264.17,468.66,264.22,461.06,264.22,453.45Z"/><path class="cls-1" d="M73.37,326.49c.92-7.72,2.08-16.65,3-25.6.31-3,1.47-4,4.54-3.74,9.55.9,19.12,1.61,28.7,2.24,2.59.18,3.34.81,2.79,3.62-1.91,9.81-3.57,19.66-5.11,29.53-.41,2.61-1.47,3.39-3.93,3.08-9.31-1.21-18.63-2.41-28-3.48C72,331.76,73.2,329.56,73.37,326.49Z"/><path class="cls-1" d="M131.75,219.37l-20.28-6.48c-10.31-3.29-10.31-3.29-6.72-13.55,1.77-5.07,3.65-10.11,5.33-15.21.88-2.65,1.67-4,5-2.54,8.2,3.58,16.6,6.71,25,9.87,2.22.84,3.32,1.57,2.3,4.25-2.7,7.07-5.11,14.24-7.63,21.37C134.25,218.42,133.85,219.81,131.75,219.37Z"/><path class="cls-2" d="M327.55,358.28c-12.06-.71-23.12-1.42-34.2-2-2-.1-2.68-1-3.16-2.76q-2.55-9.53-5.36-19c-.93-3.13.42-3.66,3.2-3.6,7.58.14,15.16.12,22.73,0,2.43,0,4,.47,5.14,2.93C319.44,341.68,323.25,349.34,327.55,358.28Z"/><path class="cls-2" d="M173.48,88.34c1,.63,1.86,1.13,2.68,1.68,6,4,12,8,18,11.9,2.14,1.37,3.33,2.33,1,4.88-4.94,5.5-9.65,11.23-14.24,17-1.84,2.34-3.28,2.09-5.45.56-6.22-4.36-12.56-8.55-18.88-12.77-1.58-1.06-3.11-1.79-1.08-4,5.43-5.88,10.69-11.91,16.05-17.85A13.14,13.14,0,0,1,173.48,88.34Z"/><path class="cls-2" d="M275,258.17c.57-13.76.23-13,12.82-7.58,11.29,4.82,16.76,11.51,15.32,24.16-.74,6.58.23,6.67-6,4-5.48-2.36-10.86-5.05-16.51-6.91-5.32-1.75-7.39-4.64-5.84-10.08A16.21,16.21,0,0,0,275,258.17Z"/><path class="cls-2" d="M249.71,28.51c1.72-.21,2.3,1,3.06,1.83,4.1,4.61,8.09,9.32,12.3,13.82,1.86,2,1.83,3.06-.61,4.41-5.91,3.27-11.74,6.69-17.53,10.17-1.66,1-2.81,1-4.07-.57C238.49,52.75,234,47.41,229.65,42c-.64-.79-2.06-1.89-.31-2.82C236.16,35.51,243.05,32,249.71,28.51Z"/><path class="cls-2" d="M285.35,180.94c6.27,4.78,11.94,9.16,17.68,13.45,1.6,1.19,2.41,2.38,1.85,4.51-1.69,6.52-3.22,13.07-5,20.37-7.56-6.48-14.6-12.61-21.76-18.59-2-1.65-1.09-3.06-.27-4.69C280.26,191.18,282.65,186.37,285.35,180.94Z"/><path class="cls-3" d="M321.93,17.54c2.18,0,2.78,0,3.37,0,17.33,1.13,12.19-2.13,15.6,14.64.6,3,0,4.38-3.48,4.35-7-.06-14,.16-20.93.46-2.79.12-4.11-.91-4.21-3.65a11.65,11.65,0,0,0-.28-1.77c-.89-4.68-4-11-2.09-13.61C312.16,14.87,318.78,18.09,321.93,17.54Z"/><path class="cls-2" d="M299.12,135.18a2.4,2.4,0,0,1,1.2-2.38c1.52-1.47,2.85-3.24,5.24-3.38l7.6-6.26c4.17,6.3,8.16,12.48,12.34,18.52,1.25,1.8.88,3.09,0,4.85-6.39,12.77-6.48,12.9-15.88,2C306,144.22,300.92,140.94,299.12,135.18Z"/><path class="cls-4" d="M363.07,104.25c.52,5-2.54,5.69-4.36,7.18-8.25,6.74-8.3,6.68-13.29-2.69-4-7.49-4-7.48,4.48-9.57l3.46-.89C361.18,96.33,362.76,97.55,363.07,104.25Z"/><path class="cls-5" d="M405,38.32c7.71,5.64,14.32,10.57,21,15.34,2.2,1.57,1.32,2.92.17,4.41s-1.65,3.89-4.46,2.31c-5.18-2.91-10.91-5.09-15.52-8.71C402.24,48.58,405.62,43.71,405,38.32Z"/><path class="cls-6" d="M401.54,92.45c4.86,1,9.67,2.25,14.54,3.08,3.05.53,3.63,2.11,3.68,5,.05,3.47-.93,4.71-4.44,3.79a37.46,37.46,0,0,0-5.35-.49C400.29,102.67,400.29,102.66,401.54,92.45Z"/></svg>